<?xml version="1.0" standalone="no"?>
<!DOCTYPE svg PUBLIC "-//W3C//DTD SVG 20010904//EN"
 "http://www.w3.org/TR/2001/REC-SVG-20010904/DTD/svg10.dtd">
<svg version="1.0" xmlns="http://www.w3.org/2000/svg"
 width="1147.000000pt" height="1147.000000pt" viewBox="0 0 1147.000000 1147.000000"
 preserveAspectRatio="xMidYMid meet">
<metadata>
Created by potrace 1.14, written by Peter Selinger 2001-2017
</metadata>
<g transform="translate(0.000000,1147.000000) scale(0.100000,-0.100000)"
fill="#000000" stroke="none">
<path d="M5470 11464 c-476 -32 -736 -70 -1118 -164 -1648 -407 -3039 -1537
-3783 -3075 -260 -539 -441 -1145 -519 -1737 -37 -286 -44 -410 -44 -753 0
-527 43 -891 165 -1383 442 -1793 1736 -3270 3469 -3957 286 -113 739 -243
1050 -299 367 -67 640 -90 1050 -90 523 0 914 48 1404 171 830 208 1599 602
2281 1169 165 137 559 531 695 693 407 491 714 1004 943 1576 623 1563 521
3354 -275 4830 -265 490 -565 898 -953 1294 -368 376 -723 656 -1155 915 -751
449 -1533 704 -2420 791 -147 15 -671 27 -790 19z m-220 -1574 c0 -5 -9 -10
-21 -10 -11 0 -17 5 -14 10 3 6 13 10 21 10 8 0 14 -4 14 -10z m160 0 c0 -6
27 -10 63 -10 44 0 58 3 47 10 -19 12 110 12 155 -1 21 -5 8 -7 -40 -4 -38 2
-60 1 -47 -1 12 -3 22 -8 22 -12 0 -4 17 -8 38 -9 66 -3 109 -10 133 -23 17
-9 24 -10 27 -2 2 8 13 7 38 -3 19 -8 34 -11 34 -8 0 3 6 0 13 -6 8 -6 17 -7
22 -3 4 4 6 -3 3 -15 -6 -23 7 -33 44 -33 10 0 27 -7 35 -16 12 -11 18 -12 23
-4 5 8 9 7 13 -4 4 -9 13 -16 20 -16 8 0 20 -7 27 -15 7 -8 16 -12 21 -9 5 3
9 2 9 -3 0 -4 27 -16 60 -27 33 -10 72 -29 87 -42 15 -13 29 -21 31 -19 3 2
17 -4 32 -15 16 -11 32 -20 37 -20 5 0 27 -13 49 -30 21 -16 45 -30 53 -30 19
0 71 -46 63 -55 -4 -5 -1 -5 6 -1 8 5 27 -3 47 -19 19 -14 35 -23 35 -19 0 4
9 -1 20 -11 11 -10 17 -22 14 -27 -3 -4 -2 -8 3 -7 4 1 25 -5 45 -14 21 -10
43 -17 49 -17 6 0 9 -9 6 -19 -5 -21 10 -31 44 -31 11 0 19 -7 19 -16 0 -8 4
-13 9 -9 5 3 12 1 16 -4 3 -6 12 -8 21 -4 23 9 52 -24 48 -55 -2 -15 -1 -20 3
-12 3 8 12 21 20 28 11 11 13 11 13 -2 0 -8 -4 -18 -10 -21 -5 -3 -9 -14 -9
-23 1 -15 2 -15 6 -1 2 9 16 19 31 22 l27 5 -23 -18 c-22 -18 -14 -39 9 -24 6
3 15 0 20 -7 4 -7 4 -16 -1 -19 -4 -3 -2 -14 6 -24 14 -19 14 -19 14 2 0 13 6
22 15 22 8 0 15 -5 15 -11 0 -6 7 -17 16 -26 8 -9 13 -22 10 -30 -4 -9 1 -17
13 -20 20 -5 57 -51 53 -66 -1 -4 9 -5 22 -3 19 3 29 -3 49 -32 13 -21 27 -47
31 -59 4 -12 13 -24 21 -27 15 -5 58 -89 58 -112 0 -7 4 -11 9 -8 4 3 8 -4 8
-16 0 -12 4 -19 9 -15 10 6 26 -32 23 -52 -2 -7 1 -13 7 -13 5 0 15 -17 22
-37 7 -21 18 -48 26 -60 12 -19 17 -40 22 -93 1 -12 3 -12 10 -2 6 10 10 9 14
-7 3 -14 1 -19 -6 -14 -7 4 -8 0 -4 -11 4 -10 7 -24 7 -32 0 -9 5 -12 10 -9 6
4 10 -14 11 -47 0 -36 3 -47 8 -33 8 19 8 19 16 -5 5 -14 4 -25 -2 -27 -7 -3
-7 -17 0 -44 6 -25 13 -36 17 -29 9 15 24 -95 22 -165 0 -34 2 -42 6 -26 5 17
11 -5 20 -75 12 -91 11 -191 -2 -410 -5 -71 -42 -343 -52 -377 -8 -26 -17 -13
-19 26 -4 107 -6 122 -15 99 -5 -12 -7 -28 -4 -35 3 -8 -1 -27 -7 -43 -7 -16
-13 -44 -15 -61 -2 -18 -10 -48 -20 -68 -10 -22 -14 -48 -11 -72 l5 -38 -11
38 c-6 20 -14 37 -18 37 -11 0 -17 -48 -6 -59 6 -6 2 -19 -11 -38 -11 -15 -23
-46 -26 -68 -10 -58 -26 -80 -26 -36 0 19 -3 31 -7 27 -4 -4 -6 -22 -5 -42 2
-21 -4 -41 -13 -50 -8 -9 -13 -19 -10 -24 10 -16 -18 -60 -39 -61 -20 0 -20
-1 -1 -8 19 -8 19 -8 -3 -20 -12 -7 -20 -16 -17 -22 4 -5 1 -9 -4 -9 -6 0 -11
-11 -11 -24 0 -39 -23 -83 -42 -80 -10 1 -15 -3 -12 -11 3 -7 -1 -19 -8 -26
-8 -8 -20 -28 -27 -46 -7 -18 -26 -46 -43 -63 -16 -18 -27 -38 -24 -46 3 -8 0
-14 -8 -14 -7 0 -21 -16 -32 -35 -10 -19 -22 -35 -26 -35 -5 0 -8 -4 -8 -10 0
-5 -8 -18 -17 -28 -29 -30 -63 -76 -63 -85 0 -4 -4 -6 -9 -3 -5 3 -8 -2 -7
-12 0 -9 -5 -16 -11 -15 -7 2 -13 -1 -13 -5 0 -10 -85 -102 -237 -258 -56 -57
-99 -104 -95 -104 3 0 -12 -18 -34 -39 -21 -22 -48 -49 -59 -61 -11 -11 -30
-31 -42 -42 -12 -12 -20 -25 -17 -30 3 -4 -2 -8 -10 -8 -8 0 -28 -17 -43 -37
-15 -21 -39 -49 -53 -63 -22 -24 -78 -89 -98 -115 -4 -5 -12 -21 -18 -35 -6
-14 -21 -37 -33 -50 -61 -72 -71 -87 -71 -109 0 -13 -3 -21 -7 -18 -11 11 -32
-14 -26 -30 4 -9 -1 -21 -10 -28 -9 -7 -24 -28 -32 -49 -8 -20 -20 -36 -25
-36 -6 0 -10 -9 -10 -20 0 -11 -9 -37 -21 -59 -11 -22 -22 -46 -23 -53 -1 -7
-5 -19 -9 -25 -5 -8 -4 -13 2 -13 6 0 11 -4 11 -10 0 -5 -6 -10 -13 -10 -17 0
-52 -112 -43 -136 4 -10 2 -20 -4 -24 -7 -4 -15 -36 -20 -72 -4 -36 -13 -76
-20 -89 -10 -17 -10 -24 -1 -27 6 -2 11 -11 11 -20 0 -15 -2 -15 -10 -2 -11
18 -15 -7 -11 -81 2 -26 -2 -49 -7 -53 -6 -3 -6 -23 -2 -48 5 -24 4 -50 -1
-60 -6 -12 -6 -18 1 -18 5 0 10 -18 10 -41 0 -28 4 -38 12 -33 7 5 8 3 4 -5
-5 -7 -15 -10 -25 -6 -13 5 -14 4 -3 -6 6 -7 12 -22 12 -34 0 -16 2 -17 10 -5
6 9 10 10 10 3 0 -6 -6 -18 -14 -26 -9 -8 -11 -19 -6 -27 5 -8 6 -18 3 -23 -4
-6 5 -8 21 -5 14 3 26 1 26 -3 0 -5 -9 -9 -20 -9 -18 0 -19 -2 -8 -23 7 -12
13 -35 14 -52 1 -16 6 -31 13 -33 17 -6 13 -22 -6 -22 -12 0 -14 -3 -7 -8 6
-4 15 -22 19 -40 4 -20 13 -32 23 -33 16 0 16 -1 0 -7 -15 -6 -14 -12 8 -57
13 -27 24 -56 24 -63 0 -7 7 -15 15 -18 10 -4 13 -13 9 -26 -4 -14 -3 -18 6
-13 7 4 10 2 9 -6 -3 -21 12 -50 22 -43 5 3 10 -1 10 -8 2 -23 4 -33 13 -57 6
-18 10 -21 17 -10 5 8 9 19 9 24 0 6 -4 4 -9 -3 -6 -11 -10 -10 -15 4 -4 10
-4 15 0 11 4 -4 13 1 19 10 11 14 12 11 10 -20 -2 -21 1 -35 6 -31 5 3 9 0 9
-5 0 -6 -4 -11 -8 -11 -4 0 -8 -11 -8 -25 0 -17 6 -25 17 -25 9 0 20 -7 23
-16 3 -8 10 -13 14 -10 5 3 7 -6 4 -21 -3 -19 -1 -24 7 -18 8 4 14 -1 18 -13
5 -21 30 -20 46 2 4 6 5 -1 1 -16 -4 -19 -1 -33 10 -43 9 -9 16 -23 16 -31 0
-7 8 -13 18 -11 9 1 17 0 17 -3 0 -3 15 -24 32 -47 18 -22 30 -43 27 -46 -3
-3 0 -8 7 -13 8 -4 10 -3 5 4 -4 7 -2 12 3 12 6 0 11 -4 11 -10 0 -5 5 -10 11
-10 5 0 7 5 4 10 -3 6 -1 10 4 10 6 0 11 -13 11 -30 0 -25 4 -30 35 -36 34 -6
52 -19 54 -39 1 -5 6 -10 11 -10 6 0 14 -5 18 -11 4 -6 25 -16 47 -22 37 -9
38 -10 10 -11 -23 -1 -27 -4 -15 -11 8 -5 22 -7 31 -4 12 3 19 -3 23 -21 4
-14 13 -25 20 -25 8 0 17 -6 19 -12 3 -8 6 -5 6 5 1 17 2 17 17 3 8 -9 13 -19
10 -24 -2 -4 13 -7 34 -7 28 0 36 -3 29 -11 -7 -8 -2 -10 16 -6 18 3 25 1 23
-9 -2 -8 3 -13 10 -11 7 1 20 -5 29 -14 12 -12 18 -13 23 -3 5 7 16 9 25 5 10
-3 15 -9 12 -12 -11 -11 21 -34 37 -28 10 4 16 1 16 -7 0 -11 2 -11 9 0 8 12
12 12 26 -2 21 -21 29 -22 21 -2 -5 14 -2 14 23 -1 26 -15 32 -16 47 -3 16 12
17 12 12 -2 -6 -14 -2 -16 20 -10 18 5 30 3 37 -6 15 -20 83 -25 81 -5 0 8 5
17 13 20 10 3 11 -2 6 -19 -3 -13 -3 -19 2 -14 10 12 61 12 87 1 11 -6 21 -5
25 3 4 6 23 11 42 10 65 -3 144 4 157 14 6 5 12 6 12 2 0 -4 7 -2 15 5 8 7 24
10 35 7 11 -3 20 -2 20 2 0 5 21 7 48 6 31 -1 56 5 74 17 14 10 32 18 40 18 7
0 24 7 36 16 13 9 35 17 49 19 14 1 29 8 33 15 5 8 16 9 30 5 15 -5 20 -4 16
3 -4 6 4 17 16 24 22 11 26 13 46 17 4 1 1 5 -7 10 -10 6 -2 9 24 9 21 0 41 5
45 12 4 6 11 12 16 13 5 1 8 5 6 9 -2 7 13 12 30 9 4 0 12 8 18 19 6 11 17 20
25 20 8 0 15 8 15 18 0 14 2 15 10 2 9 -13 11 -13 20 0 5 8 10 20 10 26 0 6
18 16 40 23 37 11 45 20 41 45 -1 5 5 6 12 3 11 -4 13 0 10 14 -4 14 0 19 14
19 19 0 57 32 49 41 -3 2 4 15 15 29 14 17 22 21 26 12 3 -9 10 -7 24 9 15 18
17 24 7 31 -11 6 -11 8 0 8 7 0 18 11 24 25 6 14 18 24 27 23 10 -2 15 3 13
15 -2 9 2 17 8 17 5 0 10 9 10 20 0 11 6 20 13 20 9 0 13 11 11 32 -2 18 -1
25 2 16 3 -10 8 -18 10 -18 12 0 31 27 42 58 9 27 9 32 -4 32 -12 0 -12 2 -2
14 7 8 16 12 21 9 4 -2 7 3 7 11 0 9 5 16 12 16 6 0 8 3 5 7 -4 3 3 15 16 27
12 12 21 29 19 38 -2 10 1 18 7 18 6 0 11 14 11 30 0 17 4 30 9 30 11 0 26 56
22 85 -1 16 0 17 8 6 8 -12 11 -9 17 14 5 19 3 30 -5 33 -8 3 -6 8 6 17 14 11
15 16 6 26 -9 9 -8 15 4 27 10 11 14 27 10 54 -3 21 -1 36 4 32 5 -3 9 6 9 20
0 14 -5 26 -12 26 -7 0 -5 5 5 12 18 14 25 91 13 145 -4 18 -4 33 1 33 5 0 9
9 9 20 0 11 -6 20 -13 20 -20 0 -16 10 21 46 24 23 33 39 29 53 -4 15 2 24 21
32 16 7 25 18 22 26 -3 7 -1 13 4 13 6 0 10 -6 10 -12 1 -7 8 -1 16 15 8 15
20 27 27 27 7 0 23 6 37 13 16 9 57 12 120 11 52 -1 102 2 111 7 12 6 23 3 39
-11 13 -11 29 -20 36 -20 19 0 104 -91 121 -130 14 -32 43 -119 43 -129 0 -3
-7 4 -15 15 -13 17 -14 14 -15 -41 -1 -43 -4 -54 -10 -40 -11 25 -11 27 -16
-80 -3 -49 -9 -92 -15 -95 -5 -4 -10 -34 -12 -68 -1 -34 -5 -62 -10 -62 -4 0
-6 -3 -5 -7 8 -34 -30 -210 -51 -238 -5 -5 -11 -23 -15 -40 -25 -109 -46 -168
-70 -196 -9 -11 -16 -28 -16 -39 0 -11 -6 -20 -12 -20 -9 0 -8 -4 2 -10 13 -8
12 -10 -3 -10 -10 0 -16 -4 -13 -9 8 -13 -26 -71 -42 -71 -7 0 -10 -4 -7 -10
3 -5 1 -10 -5 -10 -6 0 -9 -4 -6 -9 9 -14 -30 -78 -79 -134 -6 -7 -19 -29 -28
-50 -10 -20 -22 -35 -26 -33 -4 3 -17 -15 -29 -39 -11 -24 -30 -46 -41 -50
-12 -3 -21 -12 -21 -19 0 -14 -61 -72 -73 -68 -4 1 -6 -2 -5 -6 4 -11 -75 -87
-113 -109 -16 -9 -29 -23 -29 -31 0 -7 -4 -11 -9 -7 -5 3 -12 1 -16 -5 -4 -6
-11 -8 -16 -5 -5 4 -9 0 -9 -7 0 -8 -9 -21 -20 -31 -11 -9 -20 -14 -20 -11 0
3 -13 -3 -29 -12 -17 -10 -28 -21 -25 -26 3 -4 -4 -8 -15 -8 -12 0 -29 -8 -39
-18 -9 -9 -43 -30 -75 -46 -31 -15 -57 -32 -57 -37 0 -5 -6 -6 -14 -3 -7 3
-20 -2 -29 -10 -9 -9 -27 -16 -41 -16 -17 0 -26 -6 -26 -16 0 -11 -6 -14 -20
-9 -13 4 -22 1 -26 -9 -3 -9 -10 -13 -15 -10 -6 3 -16 1 -23 -5 -13 -11 -65
-21 -111 -22 -11 0 -22 -3 -25 -8 -8 -11 -139 -50 -195 -57 -27 -3 -61 -8 -75
-11 -14 -2 -54 -6 -90 -8 -36 -2 -65 -5 -65 -5 0 -1 -31 -3 -70 -6 -38 -2 -90
-7 -115 -10 -114 -13 -377 -16 -449 -4 -209 32 -304 54 -433 99 -73 25 -276
126 -353 175 -71 46 -231 173 -293 234 -24 23 -48 42 -54 42 -5 0 -7 4 -3 9 3
6 0 13 -7 18 -8 4 -33 32 -57 61 -23 28 -46 50 -51 47 -8 -5 -25 24 -22 38 1
4 -5 7 -13 7 -8 0 -15 7 -15 15 0 9 -11 21 -25 27 -14 6 -25 17 -25 25 0 7 -7
16 -16 20 -8 3 -13 12 -10 20 3 8 2 11 -3 8 -5 -3 -12 4 -16 15 -4 11 -17 32
-30 46 -13 14 -29 42 -36 62 -7 21 -15 39 -19 42 -9 7 -90 174 -90 186 0 6 -9
28 -19 50 -11 21 -28 71 -37 111 -10 41 -22 69 -27 66 -6 -3 -7 -2 -4 4 3 5
-3 52 -14 104 -12 52 -20 109 -20 128 0 18 -4 54 -10 80 -21 92 -9 527 17 614
3 10 0 17 -8 17 -10 0 -10 2 1 9 8 5 11 16 6 30 -4 13 -2 21 5 21 8 0 11 11 8
30 -3 16 -1 30 3 30 5 0 11 17 15 38 3 20 13 57 20 81 8 24 12 51 9 59 -3 8 0
21 6 28 6 7 8 17 5 23 -4 5 1 17 10 26 9 9 14 24 11 35 -3 13 0 20 9 20 8 0
14 4 14 9 0 5 3 17 7 27 4 12 3 15 -5 10 -19 -12 -14 9 7 28 11 10 21 32 23
50 2 20 8 30 17 28 12 -3 12 0 2 12 -11 13 -9 20 8 44 11 16 18 32 14 36 -3 3
1 6 11 6 9 0 15 4 11 9 -3 6 2 14 11 19 11 6 15 16 11 26 -4 10 -1 19 8 22 11
5 12 11 5 24 -13 24 -13 33 0 25 6 -3 10 -1 10 5 0 7 7 10 15 7 9 -4 18 5 27
28 6 19 19 35 28 35 13 0 13 1 0 10 -11 7 -11 10 -2 10 10 0 10 5 2 21 -7 11
-9 23 -6 27 3 3 6 -1 6 -9 1 -10 4 -9 11 4 6 9 14 15 20 12 5 -4 9 1 9 9 0 9
7 16 16 16 14 0 14 3 4 15 -11 14 -7 19 13 16 4 0 7 6 7 15 0 8 7 22 15 30 13
14 15 13 15 -2 0 -10 9 -1 20 21 11 22 20 46 20 55 0 19 34 50 55 50 21 0 19
20 -2 21 -10 0 -3 5 15 10 22 7 32 16 32 29 0 10 9 22 20 25 11 3 20 12 20 20
0 7 7 16 15 19 9 3 15 14 13 23 -2 12 3 18 14 17 17 -2 14 25 -4 37 -5 3 2 14
14 25 16 14 19 14 10 2 -11 -14 -11 -21 -1 -40 11 -20 14 -20 17 -5 2 9 8 17
13 17 5 0 17 15 26 34 11 23 21 32 31 28 10 -3 13 -1 8 7 -8 12 28 53 58 64 9
4 16 14 16 24 0 15 2 16 10 3 5 -8 10 -12 11 -7 7 34 20 55 39 60 11 3 27 21
36 41 10 19 21 33 26 30 4 -3 8 1 8 9 0 7 12 19 26 25 14 7 22 17 19 22 -3 6
1 10 9 10 9 0 18 11 22 25 4 16 13 25 25 25 10 0 19 7 19 15 0 8 5 15 10 15 6
0 15 12 20 26 6 14 14 23 19 19 5 -3 12 -1 16 5 3 5 0 10 -7 10 -7 0 -2 6 11
13 13 6 22 15 20 19 -2 4 11 18 28 31 18 13 30 27 26 30 -3 4 1 7 10 7 10 0
18 6 19 13 0 6 2 17 2 24 2 19 38 53 49 46 6 -4 8 0 4 11 -4 9 -3 15 2 11 12
-7 51 47 51 71 0 9 3 14 7 11 9 -10 54 55 49 70 -3 7 1 13 9 13 8 0 15 7 15
15 0 8 4 15 9 15 5 0 14 15 20 33 7 19 21 43 32 55 11 12 16 22 12 22 -4 0 -1
5 7 11 12 8 10 9 -9 4 -16 -5 -21 -4 -17 4 4 6 14 11 21 11 18 0 38 37 31 55
-3 8 -1 15 5 17 5 2 14 31 20 66 6 35 17 68 23 75 15 15 29 50 18 43 -5 -3 -6
9 -4 26 3 21 7 26 13 17 6 -10 9 -8 9 9 0 12 4 22 9 22 5 0 7 19 4 43 -3 29
-2 38 5 28 7 -10 10 -4 10 22 0 20 3 41 7 46 3 6 0 14 -9 17 -18 7 -10 34 10
34 8 0 14 5 14 11 0 5 -4 7 -10 4 -15 -9 -12 19 5 51 20 39 19 55 -2 48 -13
-4 -14 -3 -5 3 7 6 14 25 15 44 1 19 6 40 10 47 5 7 4 12 -2 12 -15 0 -14 73
2 90 10 11 8 11 -7 0 -18 -14 -18 -13 -11 20 4 19 8 44 9 55 1 36 -16 160 -24
170 -4 6 -8 34 -8 63 0 28 -4 58 -9 65 -4 6 -9 20 -10 29 -5 33 -55 148 -65
148 -5 0 -7 4 -4 9 3 5 -4 29 -15 53 -50 101 -63 124 -75 139 -8 8 -14 21 -14
27 0 6 -13 25 -30 42 -16 17 -30 35 -30 40 0 5 -8 15 -17 22 -10 7 -24 24 -31
38 -13 26 -125 150 -135 150 -4 0 -21 15 -40 33 -41 40 -101 87 -136 107 -14
8 -28 18 -31 21 -3 3 -12 9 -20 12 -8 4 -28 16 -45 27 -16 11 -39 24 -50 29
-11 5 -54 25 -95 44 -65 31 -121 49 -270 89 -112 29 -297 39 -465 24 -81 -7
-97 -10 -217 -44 -37 -11 -69 -17 -72 -15 -2 3 -15 -1 -28 -8 -12 -7 -25 -14
-28 -15 -11 -2 -48 -18 -118 -50 -41 -19 -78 -34 -82 -34 -5 0 -10 -4 -12 -8
-1 -4 -25 -20 -52 -36 -26 -15 -56 -36 -66 -46 -10 -10 -20 -17 -22 -15 -2 2
-21 -11 -42 -30 -21 -18 -52 -44 -69 -57 -60 -45 -97 -80 -97 -93 0 -7 -8 -15
-18 -17 -9 -3 -26 -24 -37 -46 -12 -25 -27 -42 -37 -42 -10 0 -18 -7 -18 -15
0 -9 -11 -27 -25 -41 -14 -14 -22 -31 -19 -37 4 -7 4 -9 -1 -5 -14 13 -57 -57
-59 -97 -1 -5 -13 -23 -28 -39 -20 -21 -26 -36 -23 -55 3 -14 2 -20 -1 -13 -9
20 -33 -17 -34 -50 0 -16 -4 -28 -10 -28 -5 0 -10 -11 -10 -24 0 -14 -5 -28
-11 -31 -6 -4 -8 -14 -5 -22 3 -8 1 -11 -4 -8 -8 5 -15 -31 -11 -57 0 -5 -4
-8 -10 -8 -6 0 -9 -6 -6 -14 3 -7 1 -18 -4 -23 -5 -5 -11 -47 -12 -91 -1 -45
-6 -82 -10 -82 -5 0 -5 -4 -2 -10 3 -5 2 -10 -3 -10 -13 0 -10 -83 3 -92 6 -5
5 -8 -4 -8 -11 0 -11 -3 -1 -15 10 -13 9 -15 -11 -16 l-24 -1 23 -6 c21 -6 22
-9 8 -27 -8 -11 -11 -26 -7 -35 4 -8 5 -57 2 -108 -5 -71 -3 -96 8 -106 17
-18 5 -56 -17 -56 -13 0 -14 -2 -4 -9 15 -9 25 -68 13 -75 -4 -3 -6 -57 -4
-121 3 -93 1 -115 -9 -109 -9 5 -8 2 1 -10 9 -10 11 -20 5 -24 -12 -9 -11 -37
1 -37 6 0 9 6 9 12 -1 7 2 11 6 8 4 -2 7 -19 8 -37 1 -23 -2 -28 -8 -18 -7 11
-10 5 -11 -20 -1 -38 -4 -57 -13 -87 -4 -13 1 -30 15 -47 12 -15 19 -30 15
-33 -3 -4 -6 0 -6 8 -1 10 -5 8 -15 -5 -8 -11 -15 -25 -15 -30 0 -6 4 -4 10 4
5 8 10 12 12 10 6 -10 -4 -180 -11 -176 -14 9 -6 -79 9 -91 13 -11 13 -15 -4
-28 -11 -8 -14 -15 -8 -15 8 0 10 -9 7 -22 -13 -63 -13 -88 1 -88 8 0 14 -7
14 -15 0 -18 -16 -20 -23 -2 -4 9 -6 9 -6 -1 -1 -7 6 -15 15 -19 12 -4 13 -8
3 -14 -15 -9 -21 -39 -7 -36 6 1 13 -4 16 -12 3 -9 0 -12 -10 -8 -11 4 -14 -1
-12 -18 1 -13 5 -29 10 -36 4 -8 3 -9 -4 -5 -8 5 -12 -4 -12 -28 0 -20 5 -36
11 -36 5 0 7 -6 3 -12 -11 -17 -12 -48 -2 -42 4 3 8 0 8 -5 0 -6 -6 -11 -12
-12 -10 0 -10 -2 0 -6 6 -2 9 -9 6 -15 -11 -17 -13 -89 -2 -82 5 4 5 -4 -2
-16 -9 -17 -9 -24 0 -30 8 -5 8 -19 -1 -55 -9 -37 -9 -52 0 -67 8 -13 9 -23 2
-32 -11 -13 -9 -54 3 -74 4 -6 4 -27 0 -46 -10 -54 -10 -106 -1 -106 5 0 5 -9
2 -20 -3 -11 -2 -20 3 -20 6 0 6 -15 0 -42 -11 -52 -16 -208 -6 -208 4 0 5 -6
3 -12 -3 -7 -6 -40 -9 -73 -2 -44 1 -65 12 -77 11 -13 12 -18 2 -18 -7 0 -10
-7 -6 -16 4 -9 1 -24 -6 -32 -7 -9 -8 -13 -2 -9 12 7 13 -1480 1 -1500 -4 -6
-3 -14 1 -17 5 -3 8 -18 6 -33 -1 -15 3 -34 9 -42 10 -12 9 -14 -3 -9 -13 5
-15 -6 -12 -66 4 -87 4 -70 -1 -251 -2 -93 0 -155 7 -163 6 -9 6 -16 0 -20
-13 -9 -15 -120 -3 -128 5 -3 6 -11 2 -17 -8 -12 -15 -92 -12 -132 1 -11 1
-38 1 -60 0 -22 5 -43 12 -47 8 -6 7 -10 -2 -17 -10 -6 -13 -28 -10 -80 1 -39
0 -72 -4 -74 -3 -1 -3 -22 2 -46 6 -32 4 -51 -5 -65 -7 -12 -16 -35 -20 -52
-13 -63 -147 -154 -225 -154 -28 0 -84 26 -104 49 -19 20 -19 20 -44 1 -14
-12 -40 -20 -62 -20 -42 0 -66 22 -95 84 -17 37 -17 93 -11 1060 7 998 8 3834
2 4391 -1 154 1 294 6 310 11 40 22 156 22 231 0 51 3 61 15 57 13 -4 14 -3 2
5 -19 14 -21 92 -2 84 11 -4 11 -1 2 16 -14 25 -14 43 -1 22 9 -13 10 -13 11
0 5 52 9 74 17 79 5 3 12 19 16 35 6 23 9 27 17 15 6 -10 9 -6 10 16 3 60 7
76 21 93 9 9 18 31 22 47 l6 30 -15 -25 c-18 -32 -19 -14 0 20 7 14 17 23 22
21 4 -2 21 23 38 55 16 33 39 73 50 89 12 17 30 47 40 68 11 20 29 47 40 60
11 12 26 34 34 49 7 15 29 42 47 60 18 18 34 38 34 45 0 21 334 343 355 343 3
0 21 11 39 25 18 14 36 25 40 25 4 0 16 8 27 19 11 10 40 29 64 41 25 13 45
26 45 29 0 6 55 33 128 63 17 7 32 16 32 20 0 5 5 8 11 8 6 0 25 6 42 14 51
23 129 47 135 41 3 -3 15 1 27 9 32 21 264 73 333 75 23 1 32 6 32 19 1 15 2
15 10 1 7 -12 19 -15 42 -12 18 3 69 8 113 11 l80 6 -60 6 -60 7 63 1 c36 1
62 -2 62 -8z m353 -17 c-7 -2 -19 -2 -25 0 -7 3 -2 5 12 5 14 0 19 -2 13 -5z
m255 -60 c-10 -2 -18 -9 -18 -14 0 -5 -7 -9 -15 -9 -8 0 -15 4 -15 9 0 10 24
19 50 19 10 0 9 -2 -2 -5z m62 -23 c-8 -5 -19 -10 -25 -10 -5 0 -3 5 5 10 8 5
20 10 25 10 6 0 3 -5 -5 -10z m705 -470 c3 -5 -1 -10 -10 -10 -9 0 -13 5 -10
10 3 6 8 10 10 10 2 0 7 -4 10 -10z m190 -80 c3 -5 1 -10 -4 -10 -6 0 -11 5
-11 10 0 6 2 10 4 10 3 0 8 -4 11 -10z m-3578 -962 c-3 -7 -5 -2 -5 12 0 14 2
19 5 13 2 -7 2 -19 0 -25z m5 -180 c-6 -6 -12 -3 -15 6 -4 9 -2 16 3 16 6 0 8
16 4 40 -4 21 -3 47 2 57 6 13 10 -1 12 -46 2 -35 -1 -68 -6 -73z m625 -10
c-3 -8 -6 -5 -6 6 -1 11 2 17 5 13 3 -3 4 -12 1 -19z m-625 -72 c-8 -31 -21 5
-14 39 6 30 6 30 12 5 4 -14 4 -33 2 -44z m705 22 c-3 -8 -6 -5 -6 6 -1 11 2
17 5 13 3 -3 4 -12 1 -19z m-21 -153 c1 -8 -2 -15 -7 -15 -5 0 -9 10 -9 22 0
23 12 17 16 -7z m-719 -7 c-3 -8 -6 -5 -6 6 -1 11 2 17 5 13 3 -3 4 -12 1 -19z
m710 -70 c-3 -8 -6 -5 -6 6 -1 11 2 17 5 13 3 -3 4 -12 1 -19z m-1 -183 c-1
-97 -5 -146 -14 -160 -12 -17 -13 -17 -8 -2 3 10 6 89 6 175 0 90 4 151 9 142
5 -8 8 -78 7 -155z m-9 -297 c-2 -13 -4 -3 -4 22 0 25 2 35 4 23 2 -13 2 -33
0 -45z m2786 -23 c-7 -21 -13 -19 -13 6 0 11 4 18 10 14 5 -3 7 -12 3 -20z
m644 -217 c-3 -7 -5 -2 -5 12 0 14 2 19 5 13 2 -7 2 -19 0 -25z m-3430 -80
c-2 -13 -4 -3 -4 22 0 25 2 35 4 23 2 -13 2 -33 0 -45z m3403 -28 c0 -5 -4
-10 -10 -10 -5 0 -10 5 -10 10 0 6 5 10 10 10 6 0 10 -4 10 -10z m-3393 -6
c-3 -3 -12 -4 -19 -1 -8 3 -5 6 6 6 11 1 17 -2 13 -5z m0 -30 c-3 -3 -12 -4
-19 -1 -8 3 -5 6 6 6 11 1 17 -2 13 -5z m2643 -14 c0 -5 -2 -10 -4 -10 -3 0
-8 5 -11 10 -3 6 -1 10 4 10 6 0 11 -4 11 -10z m-2650 -14 c0 -2 -7 -7 -16
-10 -8 -3 -12 -2 -9 4 6 10 25 14 25 6z m1970 -796 c0 -5 -5 -10 -11 -10 -5 0
-7 5 -4 10 3 6 8 10 11 10 2 0 4 -4 4 -10z m-60 -70 c0 -5 -4 -10 -10 -10 -5
0 -10 5 -10 10 0 6 5 10 10 10 6 0 10 -4 10 -10z m-419 -507 c-12 -20 -14 -14
-5 12 4 9 9 14 11 11 3 -2 0 -13 -6 -23z m-61 -128 c0 -8 -3 -16 -7 -18 -5 -3
-8 5 -8 18 0 13 3 21 8 18 4 -2 7 -10 7 -18z m-60 -129 c0 -2 -7 -6 -15 -10
-8 -3 -15 -1 -15 4 0 6 7 10 15 10 8 0 15 -2 15 -4z m3654 -752 c30 -12 16
-23 -15 -12 -17 6 -68 8 -117 6 -47 -3 -77 -1 -66 3 23 9 176 11 198 3z
m-3287 -286 c-3 -8 -6 -5 -6 6 -1 11 2 17 5 13 3 -3 4 -12 1 -19z m10 -50 c-3
-7 -5 -2 -5 12 0 14 2 19 5 13 2 -7 2 -19 0 -25z m553 -1153 c0 -12 -19 -12
-23 0 -4 9 -1 12 9 8 7 -3 14 -7 14 -8z m290 -129 c0 -2 -7 -7 -16 -10 -8 -3
-12 -2 -9 4 6 10 25 14 25 6z m-66 -31 c-7 -17 -34 -21 -34 -4 0 5 4 8 9 4 5
-3 12 -1 16 5 9 15 15 12 9 -5z m142 -6 c8 -14 -10 -11 -32 6 -18 13 -18 14 4
8 12 -3 25 -9 28 -14z m-66 -49 c0 -5 -2 -10 -4 -10 -3 0 -8 5 -11 10 -3 6 -1
10 4 10 6 0 11 -4 11 -10z m461 -137 c-12 -20 -14 -14 -5 12 4 9 9 14 11 11 3
-2 0 -13 -6 -23z"/>
<path d="M5098 9673 c7 -3 16 -2 19 1 4 3 -2 6 -13 5 -11 0 -14 -3 -6 -6z"/>
<path d="M4986 9635 c-8 -8 -21 -15 -30 -15 -8 0 -18 -5 -22 -12 -5 -8 0 -9
17 -4 13 4 41 10 62 13 39 6 48 17 21 27 -23 9 -31 8 -48 -9z"/>
<path d="M4828 9633 c7 -3 16 -2 19 1 4 3 -2 6 -13 5 -11 0 -14 -3 -6 -6z"/>
<path d="M4860 9625 c0 -8 5 -15 10 -15 6 0 10 5 10 10 0 6 5 10 10 10 6 0 10
-11 10 -25 0 -14 5 -25 11 -25 6 0 9 6 6 14 -7 16 8 32 38 39 11 2 -6 5 -37 6
-45 1 -58 -2 -58 -14z"/>
<path d="M4820 9610 c-8 -5 -12 -11 -10 -12 26 -20 59 -36 64 -31 12 12 6 25
-9 19 -10 -4 -15 1 -15 14 0 22 -7 24 -30 10z"/>
<path d="M4755 9591 c-3 -5 -1 -12 5 -16 5 -3 10 1 10 9 0 18 -6 21 -15 7z"/>
<path d="M4670 9570 c0 -5 -5 -9 -11 -7 -6 1 -13 -6 -14 -15 -4 -21 15 -24 33
-6 7 7 12 8 12 2 0 -16 -22 -34 -42 -34 -10 0 -18 5 -18 10 0 17 -36 11 -55
-10 -10 -11 -32 -22 -49 -26 -18 -3 -37 -14 -43 -23 -10 -16 -7 -20 14 -30 28
-13 46 -5 23 9 -8 5 -12 12 -8 15 3 4 15 1 26 -6 11 -7 28 -9 38 -5 19 7 19 8
0 22 -11 7 -17 17 -13 20 4 4 16 -3 27 -16 11 -13 20 -18 20 -13 0 6 12 8 28
5 24 -5 26 -3 14 11 -13 15 -9 17 27 23 23 4 44 11 47 15 3 5 14 9 25 9 10 0
19 5 19 11 0 5 4 7 10 4 5 -3 20 0 32 6 l23 12 -30 8 c-21 6 -36 4 -53 -7 -23
-15 -24 -15 -17 5 7 24 2 26 -26 11 -13 -7 -19 -7 -19 0 0 5 -4 10 -10 10 -5
0 -10 -4 -10 -10z m-53 -76 c-3 -3 -12 -4 -19 -1 -8 3 -5 6 6 6 11 1 17 -2 13
-5z"/>
<path d="M4403 9415 c-9 -24 0 -25 26 -4 23 19 23 19 2 19 -12 0 -24 -7 -28
-15z"/>
<path d="M4345 9399 c-20 -7 -20 -8 0 -9 17 0 15 -5 -15 -30 -19 -16 -32 -30
-29 -30 11 0 55 25 71 41 20 19 1 39 -27 28z"/>
<path d="M4440 9391 c0 -5 9 -7 20 -4 11 3 20 7 20 9 0 2 -9 4 -20 4 -11 0
-20 -4 -20 -9z"/>
<path d="M6603 9000 c1 -10 4 -17 8 -14 4 2 9 -1 11 -8 4 -12 28 -3 28 11 0 4
-11 13 -24 19 -22 10 -24 9 -23 -8z"/>
<path d="M7155 8960 c-16 -7 -17 -9 -3 -9 9 -1 20 4 23 9 7 11 7 11 -20 0z"/>
<path d="M6661 8948 c2 -31 16 -63 27 -64 7 -1 19 -2 27 -3 8 0 17 -16 21 -36
3 -19 10 -35 15 -35 5 0 9 -7 9 -16 0 -9 6 -14 13 -11 8 3 19 -8 27 -27 15
-33 23 -44 58 -83 12 -13 19 -29 16 -35 -5 -7 -2 -8 5 -4 8 5 14 0 18 -13 3
-12 10 -21 17 -21 6 0 5 -4 -3 -9 -11 -7 -11 -13 3 -32 l16 -23 0 27 c0 15 5
27 10 27 6 0 -1 17 -15 37 -14 21 -25 43 -25 50 0 7 -5 13 -10 13 -9 0 -32 44
-31 60 0 3 -11 11 -25 18 -14 7 -24 22 -24 34 0 11 -19 40 -42 63 -24 24 -54
55 -67 69 -25 28 -42 34 -40 14z"/>
<path d="M7155 8900 c-3 -5 -1 -10 4 -10 6 0 11 5 11 10 0 6 -2 10 -4 10 -3 0
-8 -4 -11 -10z"/>
<path d="M3890 8652 c0 -10 -13 -26 -30 -35 -29 -17 -38 -36 -23 -50 9 -10 33
12 27 26 -2 7 6 17 18 22 13 6 22 17 20 24 -2 8 3 18 10 22 10 7 9 9 -4 9 -11
0 -18 -7 -18 -18z"/>
<path d="M6941 8543 c-1 -17 4 -35 10 -38 19 -13 23 5 6 38 l-16 32 0 -32z"/>
<path d="M3778 8497 c-42 -82 -68 -144 -68 -162 0 -9 -7 -26 -15 -38 -8 -12
-13 -31 -13 -43 2 -25 -21 -84 -33 -84 -5 0 -9 -18 -9 -39 0 -22 -5 -43 -11
-47 -8 -4 -7 -9 2 -15 12 -8 11 -11 -1 -19 -9 -6 -10 -10 -3 -10 8 0 9 -9 4
-27 -13 -47 -13 -210 -1 -234 9 -16 9 -23 1 -29 -7 -4 -9 -15 -5 -25 5 -11 4
-16 -3 -12 -6 4 -7 -15 -1 -56 5 -34 7 -95 5 -134 -2 -40 0 -73 5 -73 4 0 8
-5 8 -11 0 -5 -4 -7 -10 -4 -5 3 -10 -3 -10 -14 0 -12 6 -21 13 -21 9 0 9 -2
-1 -9 -10 -6 -11 -19 -6 -46 6 -33 5 -37 -10 -32 -14 6 -15 4 -2 -16 11 -16
14 -40 10 -86 -3 -44 -1 -67 8 -72 8 -5 9 -11 1 -21 -6 -7 -13 -59 -16 -116
-4 -87 -2 -104 12 -112 15 -8 15 -10 -1 -22 -14 -11 -16 -23 -9 -78 4 -36 5
-76 1 -90 -4 -14 -6 -120 -6 -237 1 -116 -2 -209 -6 -206 -5 2 -8 -3 -8 -12 0
-9 5 -13 10 -10 6 3 10 -3 10 -14 0 -12 -3 -21 -7 -21 -5 0 -7 -55 -5 -122 3
-107 1 -124 -14 -135 -17 -12 -17 -13 0 -13 10 0 14 -5 10 -11 -3 -6 0 -15 7
-20 10 -6 8 -9 -8 -9 -15 0 -23 -6 -23 -17 0 -15 2 -16 10 -3 7 11 10 1 11
-35 1 -82 0 -215 -2 -295 l-2 -75 -7 55 c-4 30 -7 -686 -8 -1592 -2 -1240 1
-1653 10 -1673 18 -39 56 -44 85 -11 l23 27 -5 556 c-3 305 -8 560 -12 566 -3
5 -1 7 4 4 7 -4 10 8 9 32 0 22 -3 38 -6 36 -3 -2 -6 630 -7 1403 -3 1854 -4
1962 -17 1962 -7 0 -7 3 -1 8 16 11 18 632 2 632 -8 0 -7 4 3 11 11 8 12 12 2
16 -6 2 -9 9 -6 15 4 6 6 89 6 186 -1 111 3 181 10 189 7 9 7 13 -2 13 -8 0
-9 4 -3 13 5 6 10 30 12 52 1 22 6 66 13 98 6 32 8 60 5 64 -9 8 12 45 22 38
8 -5 23 60 23 103 0 12 4 22 10 22 5 0 8 8 7 18 -1 9 4 31 10 47 7 17 14 43
16 59 1 16 10 35 19 41 9 7 18 31 20 54 6 61 -22 55 -56 -12z m-118 -847 c0
-11 -7 -20 -15 -20 -8 0 -15 5 -15 11 0 5 5 7 10 4 6 -3 10 1 10 9 0 9 2 16 5
16 3 0 5 -9 5 -20z m-13 -142 c-3 -8 -6 -5 -6 6 -1 11 2 17 5 13 3 -3 4 -12 1
-19z m-50 -2650 c-2 -13 -4 -5 -4 17 -1 22 1 32 4 23 2 -10 2 -28 0 -40z m0
-400 c-3 -7 -5 -2 -5 12 0 14 2 19 5 13 2 -7 2 -19 0 -25z"/>
<path d="M6988 8423 c7 -3 16 -2 19 1 4 3 -2 6 -13 5 -11 0 -14 -3 -6 -6z"/>
<path d="M7002 8390 c0 -14 2 -19 5 -12 2 6 2 18 0 25 -3 6 -5 1 -5 -13z"/>
<path d="M3641 8204 c0 -11 3 -14 6 -6 3 7 2 16 -1 19 -3 4 -6 -2 -5 -13z"/>
<path d="M7522 8125 c0 -16 2 -22 5 -12 2 9 2 23 0 30 -3 6 -5 -1 -5 -18z"/>
<path d="M3961 7574 c0 -11 3 -14 6 -6 3 7 2 16 -1 19 -3 4 -6 -2 -5 -13z"/>
<path d="M7155 7480 c5 -30 7 -81 6 -113 -1 -34 2 -57 7 -53 5 3 8 20 7 38 -1
18 2 45 6 60 5 17 3 29 -4 32 -8 3 -7 5 2 5 11 1 11 4 0 17 -7 9 -15 25 -16
37 -2 11 -6 23 -10 26 -3 3 -2 -19 2 -49z"/>
<path d="M7174 7500 c0 -11 4 -20 8 -20 4 0 8 9 8 20 0 11 -4 20 -8 20 -4 0
-8 -9 -8 -20z"/>
<path d="M7522 7455 c-8 -49 -7 -61 6 -74 13 -13 14 -13 8 7 -4 12 -3 38 3 58
6 21 7 44 2 52 -6 10 -12 -3 -19 -43z"/>
<path d="M7475 7400 c-3 -5 -1 -10 4 -10 6 0 11 5 11 10 0 6 -2 10 -4 10 -3 0
-8 -4 -11 -10z"/>
<path d="M7501 7343 c-1 -23 4 -33 14 -33 8 0 15 9 15 21 0 11 -4 18 -9 14 -5
-3 -12 3 -14 12 -3 10 -5 3 -6 -14z"/>
<path d="M7476 7343 c-4 -9 -3 -20 2 -25 6 -6 10 1 10 16 0 30 -3 32 -12 9z"/>
<path d="M7501 7248 c-1 -21 4 -38 9 -38 12 0 12 27 0 55 -7 16 -9 13 -9 -17z"/>
<path d="M7120 7190 c0 -5 5 -10 10 -10 6 0 10 5 10 10 0 6 -4 10 -10 10 -5 0
-10 -4 -10 -10z"/>
<path d="M7097 7144 c-10 -11 -9 -26 2 -19 6 3 14 -3 20 -12 6 -10 11 -13 11
-7 0 16 -25 46 -33 38z"/>
<path d="M7015 6819 c-4 -6 -5 -12 -2 -15 2 -3 7 2 10 11 7 17 1 20 -8 4z"/>
<path d="M3961 6804 c0 -11 3 -14 6 -6 3 7 2 16 -1 19 -3 4 -6 -2 -5 -13z"/>
<path d="M3582 5820 c0 -14 2 -19 5 -12 2 6 2 18 0 25 -3 6 -5 1 -5 -13z"/>
<path d="M3583 5680 c0 -30 2 -43 4 -27 2 15 2 39 0 55 -2 15 -4 2 -4 -28z"/>
<path d="M3581 5594 c0 -11 3 -14 6 -6 3 7 2 16 -1 19 -3 4 -6 -2 -5 -13z"/>
<path d="M5657 5070 c-9 -11 -17 -27 -17 -35 0 -9 -7 -18 -16 -22 -8 -3 -13
-12 -10 -20 3 -8 2 -12 -3 -9 -5 3 -14 -1 -21 -9 -9 -11 -10 -18 -1 -29 9 -11
8 -14 -6 -12 -13 1 -20 -10 -28 -39 -5 -22 -15 -46 -22 -53 -7 -7 -14 -25 -15
-40 -1 -15 -2 -34 -4 -42 -1 -8 -2 -20 -3 -27 -1 -7 -7 -10 -15 -7 -14 5 -17
-5 -36 -131 -5 -33 -12 -71 -15 -85 -3 -14 -6 -46 -6 -72 -1 -27 -6 -48 -10
-48 -4 0 -7 -8 -7 -17 1 -10 -2 -28 -6 -40 -5 -15 -3 -23 5 -23 9 0 9 -3 0
-14 -8 -10 -9 -16 -1 -21 5 -3 10 -12 10 -18 0 -7 -4 -6 -10 3 -5 8 -11 12
-14 10 -3 -3 -5 -80 -6 -170 -2 -265 -2 -270 15 -270 11 0 12 -5 5 -26 -7 -17
-7 -32 1 -45 5 -11 9 -27 8 -37 -1 -9 1 -29 5 -43 4 -14 8 -32 10 -40 2 -8 6
-27 10 -44 4 -16 12 -50 18 -75 6 -25 21 -68 34 -97 13 -28 24 -54 24 -57 0
-19 43 -115 50 -111 4 3 11 -2 14 -11 4 -10 2 -13 -6 -8 -6 4 0 -8 15 -28 15
-19 27 -39 27 -45 0 -5 14 -25 30 -43 17 -18 30 -39 30 -45 0 -7 14 -30 31
-51 17 -22 40 -52 52 -67 35 -45 145 -162 194 -207 65 -59 96 -84 89 -73 -5 9
-2 11 8 7 29 -11 17 6 -68 94 -284 293 -457 645 -517 1052 -16 108 -16 436 0
560 28 217 98 488 153 595 19 35 48 105 45 105 -2 0 -10 -9 -20 -20z m-240
-892 c-3 -7 -5 -2 -5 12 0 14 2 19 5 13 2 -7 2 -19 0 -25z m0 -140 c-3 -8 -6
-5 -6 6 -1 11 2 17 5 13 3 -3 4 -12 1 -19z"/>
<path d="M5621 5034 c0 -11 3 -14 6 -6 3 7 2 16 -1 19 -3 4 -6 -2 -5 -13z"/>
<path d="M5581 4782 c-29 -97 -58 -221 -77 -337 -22 -129 -25 -524 -6 -635 34
-193 140 -518 164 -504 7 4 8 2 4 -5 -11 -17 115 -255 154 -291 3 -3 27 -34
54 -70 110 -144 263 -289 406 -384 112 -74 148 -96 154 -96 9 0 -1 34 -12 38
-7 2 -12 10 -12 18 0 12 -18 19 -42 15 -4 0 -22 15 -40 34 -18 19 -36 35 -39
35 -9 0 -48 32 -96 78 -18 17 -38 32 -44 32 -6 0 -8 4 -4 9 3 5 -3 12 -14 16
-11 3 -35 23 -54 45 -20 21 -38 36 -41 32 -3 -3 -6 0 -6 7 0 6 -14 25 -30 41
-17 17 -28 30 -25 30 4 0 -7 14 -24 31 -17 17 -31 35 -31 40 0 5 -7 9 -16 9
-8 0 -13 4 -9 10 3 5 -7 22 -23 37 -16 15 -32 40 -36 56 -3 15 -13 27 -22 27
-11 0 -14 5 -10 17 4 10 4 14 0 11 -7 -8 -34 15 -34 29 0 22 -37 93 -49 93 -8
0 -11 6 -7 16 3 8 2 12 -4 9 -6 -3 -10 1 -10 10 0 9 -4 13 -10 10 -5 -3 -7 0
-4 9 3 8 -2 26 -11 40 -10 14 -15 32 -12 39 3 8 1 20 -4 28 -7 11 -9 10 -10
-6 -1 -11 -1 -27 0 -35 1 -11 0 -12 -7 -2 -4 7 -7 29 -6 50 3 34 2 36 -11 18
-17 -23 -20 -14 -5 15 7 11 7 19 1 19 -5 0 -12 -6 -14 -12 -4 -10 -6 -10 -6
-1 -1 6 4 15 9 18 8 5 8 11 1 19 -6 7 -11 29 -13 49 -1 20 -7 37 -14 37 -6 0
-17 7 -24 15 -9 10 -9 15 -1 15 6 0 11 -4 11 -10 0 -5 8 -10 18 -10 14 0 15 2
2 10 -8 5 -10 10 -5 10 6 0 3 5 -5 10 -10 6 -11 10 -3 10 9 0 10 7 4 23 -4 12
-6 28 -4 35 3 6 -1 12 -7 12 -7 0 -10 -11 -7 -27 2 -16 2 -22 -1 -14 -3 10 -6
11 -11 2 -5 -7 -7 9 -7 36 1 26 5 51 11 55 6 4 3 12 -8 20 -11 8 -17 24 -16
38 2 14 -1 74 -5 134 -10 125 -12 423 -3 432 3 3 2 17 -3 30 -6 14 -6 26 0 29
5 3 9 18 9 33 -1 41 19 171 29 187 3 5 7 16 8 25 2 8 7 31 13 50 19 66 30 114
27 118 -2 2 -13 -28 -25 -66z"/>
<path d="M3551 4494 c0 -11 3 -14 6 -6 3 7 2 16 -1 19 -3 4 -6 -2 -5 -13z"/>
<path d="M9158 4463 c-19 -5 -25 -23 -9 -23 17 0 41 12 41 21 0 9 -4 10 -32 2z"/>
<path d="M3553 4385 c0 -44 2 -61 4 -37 2 23 2 59 0 80 -2 20 -4 1 -4 -43z"/>
<path d="M3550 3749 c0 -294 -3 -741 -5 -994 -3 -282 -1 -466 5 -475 7 -11 10
-4 10 25 3 325 -2 1970 -5 1973 -3 3 -5 -235 -5 -529z"/>
<path d="M8985 4122 c-3 -8 -8 -51 -11 -96 -5 -77 -22 -239 -30 -280 -2 -11
-8 -22 -13 -25 -13 -8 -31 -142 -21 -159 5 -10 12 -3 24 23 14 28 15 39 6 50
-14 17 -3 38 16 31 10 -4 14 2 14 19 0 14 4 25 9 25 5 0 11 19 15 43 4 23 13
51 20 62 7 11 16 52 20 90 3 39 8 88 10 110 3 23 -2 52 -10 69 -8 16 -14 34
-14 41 0 17 -28 14 -35 -3z"/>
<path d="M6202 3130 c0 -14 2 -19 5 -12 2 6 2 18 0 25 -3 6 -5 1 -5 -13z"/>
<path d="M6358 2983 c7 -3 16 -2 19 1 4 3 -2 6 -13 5 -11 0 -14 -3 -6 -6z"/>
<path d="M6077 2674 c-6 -6 97 -87 141 -111 32 -17 27 -1 -5 19 -16 9 -48 35
-71 57 -44 41 -53 46 -65 35z"/>
<path d="M6467 2450 c19 -22 29 -19 20 5 -4 8 -13 15 -22 15 -13 0 -12 -3 2
-20z"/>
</g>
</svg>
