<?xml version="1.0" encoding="UTF-8" standalone="no"?><!DOCTYPE svg PUBLIC "-//W3C//DTD SVG 1.1//EN" "http://www.w3.org/Graphics/SVG/1.1/DTD/svg11.dtd"><svg width="100%" height="100%" viewBox="0 0 2500 2500" version="1.1" xmlns="http://www.w3.org/2000/svg" xmlns:xlink="http://www.w3.org/1999/xlink" xml:space="preserve" xmlns:serif="http://www.serif.com/" style="fill-rule:evenodd;clip-rule:evenodd;stroke-linejoin:round;stroke-miterlimit:2;"><circle id="background" cx="1250" cy="1250" r="1250" style="fill:#536e63;"/><path id="behance" d="M883.1,683.6c53.9,0 103.1,4.8 147.6,14.3c44.5,9.5 82.5,25.1 114.2,46.8c31.7,21.7 56.3,50.5 73.8,86.5c17.5,36 26.2,80.4 26.2,133.3c0,57.1 -13,104.7 -38.9,142.8c-25.9,38.1 -64.3,69.3 -115,93.6c69.8,20.1 121.9,55.3 156.3,105.5c34.4,50.2 51.6,110.8 51.6,181.7c0,57.1 -11.1,106.6 -33.3,148.4c-22.2,41.8 -52.1,75.9 -89.7,102.3c-37.6,26.5 -80.4,46 -128.5,58.7c-48.4,12.7 -98.3,19.1 -148.3,19l-549.1,0l0,-1132.9l533.1,0Zm-31.7,458.5c44.4,0 80.9,-10.6 109.5,-31.7c28.6,-21.2 42.9,-55.5 42.8,-103.1c0,-26.4 -4.8,-48.1 -14.3,-65c-9.5,-16.9 -22.2,-30.2 -38.1,-39.7c-15.9,-9.5 -34.1,-16.1 -54.7,-19.8c-21.2,-3.7 -42.7,-5.6 -64.3,-5.5l-233.1,0l0,265l252.2,-0.2Zm14.3,480.7c23.5,0.1 46.9,-2.3 69.8,-7.1c22.2,-4.8 41.8,-12.7 58.7,-23.8c16.9,-11.1 30.4,-26.2 40.5,-45.2c10,-19 15.1,-43.4 15.1,-73c0,-58.1 -16.4,-99.7 -49.2,-124.5c-32.8,-24.9 -76.2,-37.3 -130.1,-37.3l-271.3,0l0,311l266.5,-0.1Zm746.6,-23.8c33.8,32.8 82.5,49.2 146,49.2c45.5,0 84.6,-11.4 117.4,-34.1c32.8,-22.7 52.9,-46.8 60.3,-72.2l198.3,0c-31.7,98.4 -80.4,168.7 -146,211c-65.6,42.3 -144.9,63.5 -238,63.5c-64.5,0 -122.7,-10.3 -174.5,-30.9c-51.8,-20.6 -95.7,-50 -131.7,-88.1c-36,-38.1 -63.8,-83.5 -83.3,-136.4c-19.5,-52.9 -29.3,-111.1 -29.3,-174.5c0,-61.3 10,-118.4 30.1,-171.3c20.1,-52.9 48.7,-98.6 85.7,-137.2c37,-38.6 81.2,-69 132.5,-91.2c51.3,-22.2 108.2,-33.3 170.6,-33.3c69.8,0 130.6,13.5 182.5,40.5c51.8,27 94.4,63.2 127.7,108.7c33.3,45.5 57.4,97.3 72.2,155.5c14.8,58.2 20.1,119 15.9,182.5l-591.8,0c3.1,72.7 21.6,125.6 55.4,158.3Zm254.7,-431.5c-27,-29.6 -68,-44.4 -123,-44.4c-36,0 -65.9,6.1 -89.6,18.2c-23.8,12.2 -42.8,27.2 -57.1,45.2c-14.3,18 -24.3,37 -30.1,57.1c-5.8,20.1 -9.3,38.1 -10.3,53.9l366.5,0c-10.7,-57 -29.5,-100.4 -56.4,-130Zm-348.7,-426.4l457.9,0l0,127l-457.9,0l0,-127Z" style="fill:#fff;fill-rule:nonzero;"/></svg>