<?xml version="1.0" ?><svg fill="none" height="1080" viewBox="0 0 1080 1080" width="1080" xmlns="http://www.w3.org/2000/svg"><path d="M366.869 524.7H452.549C465.149 524.7 475.649 521.2 484.049 514.2C492.449 506.92 496.649 496.56 496.649 483.12C496.649 468 492.869 457.36 485.309 451.2C477.749 445.04 466.829 441.96 452.549 441.96H366.869V524.7ZM314.369 399.12H460.109C486.989 399.12 508.549 405.28 524.789 417.6C541.029 429.92 549.149 448.54 549.149 473.46C549.149 488.58 545.369 501.6 537.809 512.52C530.529 523.16 520.029 531.42 506.309 537.3V538.14C524.789 542.06 538.789 550.88 548.309 564.6C557.829 578.04 562.589 594.98 562.589 615.42C562.589 627.18 560.489 638.24 556.289 648.6C552.089 658.68 545.509 667.5 536.549 675.06C527.589 682.34 516.109 688.22 502.109 692.7C488.109 696.9 471.449 699 452.129 699H314.369V399.12ZM366.869 656.16H459.689C475.649 656.16 487.969 652.1 496.649 643.98C505.609 635.58 510.089 623.82 510.089 608.7C510.089 593.86 505.609 582.52 496.649 574.68C487.969 566.56 475.649 562.5 459.689 562.5H366.869V656.16ZM752.472 571.32C751.912 563.76 750.232 556.48 747.432 549.48C744.912 542.48 741.272 536.46 736.512 531.42C732.032 526.1 726.432 521.9 719.712 518.82C713.272 515.46 705.992 513.78 697.872 513.78C689.472 513.78 681.772 515.32 674.772 518.4C668.052 521.2 662.172 525.26 657.132 530.58C652.372 535.62 648.452 541.64 645.372 548.64C642.572 555.64 641.032 563.2 640.752 571.32H752.472ZM640.752 602.82C640.752 611.22 641.872 619.34 644.112 627.18C646.632 635.02 650.272 641.88 655.032 647.76C659.792 653.64 665.812 658.4 673.092 662.04C680.372 665.4 689.052 667.08 699.132 667.08C713.132 667.08 724.332 664.14 732.732 658.26C741.412 652.1 747.852 643 752.052 630.96H797.412C794.892 642.72 790.552 653.22 784.392 662.46C778.232 671.7 770.812 679.54 762.132 685.98C753.452 692.14 743.652 696.76 732.732 699.84C722.092 703.2 710.892 704.88 699.132 704.88C682.052 704.88 666.932 702.08 653.772 696.48C640.612 690.88 629.412 683.04 620.172 672.96C611.212 662.88 604.352 650.84 599.592 636.84C595.112 622.84 592.872 607.44 592.872 590.64C592.872 575.24 595.252 560.68 600.012 546.96C605.052 532.96 612.052 520.78 621.012 510.42C630.252 499.78 641.312 491.38 654.192 485.22C667.072 479.06 681.632 475.98 697.872 475.98C714.952 475.98 730.212 479.62 743.652 486.9C757.372 493.9 768.712 503.28 777.672 515.04C786.632 526.8 793.072 540.38 796.992 555.78C801.192 570.9 802.312 586.58 800.352 602.82H640.752ZM637.392 436.92V409.62H758.352V436.92H637.392Z" fill="url(#paint0_linear)"/><rect height="760" rx="136.5" stroke="url(#paint1_linear)" stroke-width="27" width="760" x="157.5" y="159.5"/><defs><linearGradient gradientUnits="userSpaceOnUse" id="paint0_linear" x1="548.738" x2="548.738" y1="196.305" y2="781.219"><stop stop-color="#0059F8" stop-opacity="0.61"/><stop offset="1" stop-color="#0059F8"/></linearGradient><linearGradient gradientUnits="userSpaceOnUse" id="paint1_linear" x1="538" x2="534.011" y1="146" y2="932.98"><stop stop-color="#0059F8" stop-opacity="0.75"/><stop offset="1" stop-color="#0059F8"/></linearGradient></defs></svg>